<?xml version="1.0" encoding="UTF-8"?>
<svg width="30px" height="30px" viewBox="0 0 30 30" version="1.1" xmlns="http://www.w3.org/2000/svg" xmlns:xlink="http://www.w3.org/1999/xlink">
    <!-- Generator: Sketch 50.2 (55047) - http://www.bohemiancoding.com/sketch -->
    <title>clinic_introduction_address_slice</title>
    <desc>Created with Sketch.</desc>
    <defs></defs>
    <g id="Page-1" stroke="none" stroke-width="1" fill="none" fill-rule="evenodd">
        <g id="Artboard" transform="translate(-34.000000, -321.000000)">
            <g id="clinic_introduction_address" transform="translate(34.000000, 321.000000)">
                <rect id="Rectangle" x="0" y="0" width="30" height="30"></rect>
                <g id="Group" transform="translate(5.000000, 3.000000)" fill="#0080FF" fill-rule="nonzero">
                    <path d="M10.3448276,25 L9.46551725,24.4530699 C9.06896551,24.2060692 0,18.5426958 0,10.5857445 C6.78097425e-16,4.73939926 4.63153707,1.0739562e-15 10.3448276,0 C16.0581181,-1.0739562e-15 20.6896552,4.73939926 20.6896552,10.5857445 C20.6896552,18.5426958 11.6206897,24.2060692 11.2241379,24.4530699 L10.3448276,25 Z M10.3448276,3.52858152 C6.53596725,3.52858152 3.44827587,6.68818102 3.44827587,10.5857445 C3.44827587,15.3140437 8.29310347,19.4071983 10.3448276,20.8186309 C12.3965517,19.4071983 17.2413793,15.3140437 17.2413793,10.5857445 C17.2413793,6.68818102 14.1536879,3.52858152 10.3448276,3.52858152 Z" id="Shape"></path>
                    <path d="M6.89655172,10.3448275 C6.8965517,11.5767779 7.55378936,12.7151469 8.62068963,13.3311221 C9.68758991,13.9470972 11.0020653,13.9470972 12.0689655,13.3311221 C13.1358658,12.7151469 13.7931035,11.5767779 13.7931034,10.3448275 C13.7931034,8.4403974 12.2492578,6.89655172 10.3448276,6.89655172 C8.44039741,6.89655172 6.89655172,8.4403974 6.89655172,10.3448275 Z" id="Shape"></path>
                </g>
            </g>
        </g>
    </g>
</svg>