<?xml version="1.0" encoding="UTF-8"?>
<svg width="30px" height="30px" viewBox="0 0 30 30" version="1.1" xmlns="http://www.w3.org/2000/svg" xmlns:xlink="http://www.w3.org/1999/xlink">
    <!-- Generator: Sketch 50.2 (55047) - http://www.bohemiancoding.com/sketch -->
    <title>clinic_introduction_telephone_slice</title>
    <desc>Created with Sketch.</desc>
    <defs></defs>
    <g id="Page-1" stroke="none" stroke-width="1" fill="none" fill-rule="evenodd">
        <g id="Artboard" transform="translate(-34.000000, -280.000000)">
            <g id="clinic_introduction_telephone" transform="translate(34.000000, 280.000000)">
                <path d="M23.9807124,11.7595015 C21.3566086,10.8471435 22.4090093,9.10908961 20.8331011,8.43404869 C18.1575567,7.28781195 15.5869095,7.32545285 15.5869095,7.32545285 C15.5869095,7.32545285 13.0247302,7.29666684 10.3408331,8.43404869 C8.7617279,9.10349062 9.81718173,10.847113 7.19307786,11.7595015 C4.41900135,12.723924 2.97103218,11.3105799 3.00043916,9.56461443 C3.0212919,8.39409518 3.70332617,7.07389484 5.09467036,6.21697872 C8.65677299,4.02221331 15.5868807,4 15.5868807,4 C15.5868807,4 22.5171325,4.02224374 26.0792063,6.21697872 C27.4599225,7.0683263 28.1430225,8.37519867 28.1723143,9.53914522 C28.2164391,11.2972519 26.7685564,12.7283058 23.9807124,11.7595015 Z M12.0057975,10.9722378 L13.7915292,10.9722378 L13.7915292,12.8740615 L17.3917946,12.8740615 L17.3917946,10.9722378 L19.1919273,10.9722378 L19.1919273,12.8740615 L26.4020493,19.5190335 L26.4020493,23.9529605 C26.4020493,25.1767308 25.1390762,26.17 23.9807124,26.17 L7.1930491,26.1700001 C6.0347429,26.1700001 4.80048549,25.1767004 4.80048549,23.9529605 L4.80048549,19.5190335 L12.0058263,12.8740615 L12.0058263,10.9722378 L12.0057975,10.9722378 Z M15.6080215,23.3559704 C17.5957425,23.35594 19.2072789,21.653397 19.2072789,19.5535402 C19.2072789,17.4534704 17.5957425,15.7509274 15.6080215,15.7509274 C13.6204446,15.7509274 12.0088793,17.4534704 12.0088793,19.5535402 C12.0088793,21.653397 13.6204446,23.3559704 15.6080215,23.3559704 Z" id="Shape" fill="#32BB06" fill-rule="nonzero"></path>
                <rect id="Rectangle-Copy-2" x="0" y="0" width="30" height="30"></rect>
            </g>
        </g>
    </g>
</svg>