<?xml version="1.0" encoding="UTF-8"?>
<svg width="20px" height="21px" viewBox="0 0 20 21" version="1.1" xmlns="http://www.w3.org/2000/svg" xmlns:xlink="http://www.w3.org/1999/xlink">
    <!-- Generator: Sketch 50.2 (55047) - http://www.bohemiancoding.com/sketch -->
    <title>doctor_team_introduction_slice</title>
    <desc>Created with Sketch.</desc>
    <defs></defs>
    <g id="Page-1" stroke="none" stroke-width="1" fill="none" fill-rule="evenodd">
        <g id="Artboard" transform="translate(-41.000000, -338.000000)" fill="#0080FF" fill-rule="nonzero">
            <path d="M60.2288498,356.917394 C60.2288498,354.197433 58.6364966,351.83185 56.3381337,350.705492 C56.4498595,350.96134 56.5074755,351.237527 56.5073629,351.516706 L56.5073629,351.756762 C57.6152205,351.989544 58.4537044,352.977466 58.4537044,354.151909 L58.4537044,355.468169 C58.6218888,355.613059 58.7284868,355.827402 58.7284868,356.066781 C58.7284868,356.50309 58.3747854,356.856771 57.9384976,356.856771 C57.5021893,356.856771 57.1484878,356.503069 57.1484878,356.066781 C57.1484878,355.80378 57.2771512,355.570977 57.4747971,355.427357 L57.4747971,354.082742 C57.4747971,353.284845 56.8219941,352.632042 56.0241171,352.632042 L56.0231541,352.632042 C55.2252566,352.632042 54.5724537,353.284845 54.5724537,354.082742 L54.5724537,355.453663 C54.7505337,355.598512 54.8644049,355.81933 54.8644049,356.066781 C54.8644049,356.50309 54.5107034,356.856771 54.0743951,356.856771 C53.6381073,356.856771 53.2844059,356.503069 53.2844059,356.066781 C53.2844059,355.827402 53.3910449,355.613079 53.5591678,355.468169 L53.5591678,354.151909 C53.5591678,352.952102 54.4345093,351.947421 55.5779541,351.74326 C55.5331678,351.153683 55.2939932,350.616452 54.9248849,350.195468 C54.5477097,350.104717 54.1635069,350.046171 53.7764205,350.020461 C53.5867034,354.375042 52.2470673,357.749834 50.6224868,357.749834 C48.9977629,357.749834 47.6580859,354.374509 47.4685122,350.019437 C47.4600917,350.01997 47.4517532,350.020789 47.4433532,350.021363 C47.0489015,350.485699 46.8099112,351.085581 46.8099112,351.738958 L46.8099112,353.735085 C47.3712156,353.941418 47.7716498,354.480759 47.7716498,355.113648 C47.7716498,355.924596 47.1142371,356.582009 46.3032888,356.582009 C45.4923405,356.582009 44.8349278,355.924596 44.8349278,355.113648 C44.8349278,354.446893 45.2795132,353.884277 45.8882673,353.705173 L45.8882673,351.310579 C45.8882673,350.91037 46.0052527,350.536344 46.2060946,350.220197 C43.2224761,350.985109 41,353.703923 41,356.917394 L41,357.131553 L41.0146693,357.131553 C41.0108995,357.148353 41.0082771,357.165256 41.0082771,357.18224 C41.0082771,357.988906 45.310921,358.642857 50.6185532,358.642857 C55.9261854,358.642857 60.2288498,357.988886 60.2288498,357.18222 C60.2288498,357.165256 60.2262478,357.148374 60.2224576,357.131553 L60.2288498,357.131553 L60.2288498,356.917394 Z M50.7298634,342.430836 C48.3468039,342.430836 46.4149268,343.166082 46.4149268,344.073077 C46.4149268,344.104055 46.4174059,344.134807 46.4218517,344.165375 L46.4149268,344.165375 L47.3264498,348.45087 C47.3398543,348.526203 47.3557754,348.601066 47.3741863,348.675335 L47.3766859,348.687095 L47.3770956,348.687095 C47.7541327,350.188933 49.119399,351.309657 50.7338995,351.309657 L50.7343502,351.309657 C52.4599356,351.309657 53.9009863,350.029579 54.1549122,348.372115 L55.0447385,344.165354 L55.0378341,344.165354 C55.04228,344.134827 55.0447385,344.104034 55.0447385,344.073057 C55.0447385,343.166082 53.112882,342.430836 50.7298634,342.430836 Z M50.7083717,342.110243 C52.8269541,342.110243 54.6254351,342.81486 55.2663756,343.793255 L55.4368751,343.793275 L55.4368751,339.683012 L55.4360556,339.683012 C55.4363424,339.675411 55.4368751,339.667789 55.4368751,339.660127 C55.4368751,338.743277 53.3297863,338 50.73056,338 C48.1313337,338 46.0242244,338.743257 46.0242244,339.660127 C46.0242244,339.667769 46.0247571,339.675411 46.0250439,339.683012 L46.0242244,339.683012 L46.0242244,343.793275 L46.1503678,343.793275 C46.7912878,342.81486 48.5897893,342.110263 50.7083717,342.110263 L50.7083717,342.110243 Z M49.4031551,339.953492 C49.4031551,339.776416 49.5480654,339.631505 49.7251824,339.631505 L50.4121385,339.631505 L50.4121385,338.944611 C50.4121385,338.767514 50.5570283,338.622583 50.7341249,338.622583 C50.9112215,338.622583 51.0561317,338.767494 51.0561317,338.94459 L51.0561317,339.631546 L51.7430878,339.631546 C51.9202049,339.631546 52.0651151,339.776457 52.0651151,339.953553 C52.0651151,340.13065 51.9202254,340.27558 51.7430878,340.27558 L51.0561317,340.27558 L51.0561317,340.962537 C51.0561317,341.139633 50.911242,341.284523 50.7341249,341.284523 C50.5570078,341.284523 50.4121385,341.139633 50.4121385,340.962537 L50.4121385,340.27556 L49.7251824,340.27556 C49.5480654,340.27556 49.4031551,340.130629 49.4031551,339.953533 L49.4031551,339.953492 Z" id="doctor_team_introduction"></path>
        </g>
    </g>
</svg>