<?xml version="1.0" encoding="UTF-8"?>
<svg width="17px" height="22px" viewBox="0 0 17 22" version="1.1" xmlns="http://www.w3.org/2000/svg" xmlns:xlink="http://www.w3.org/1999/xlink">
    <!-- Generator: Sketch 50.2 (55047) - http://www.bohemiancoding.com/sketch -->
    <title>doctor_team_honor_slice</title>
    <desc>Created with Sketch.</desc>
    <defs></defs>
    <g id="Page-1" stroke="none" stroke-width="1" fill="none" fill-rule="evenodd">
        <g id="Artboard" transform="translate(-43.000000, -502.000000)" fill="#FF8000" fill-rule="nonzero">
            <path d="M51.5423336,506.845288 C46.9003362,506.845288 43.1371852,510.608365 43.1371852,515.250436 C43.1371852,519.892434 46.9003362,523.655585 51.5423336,523.655585 C56.1843311,523.655585 59.9474821,519.892434 59.9474821,515.250436 C59.9474821,510.608365 56.1843311,506.845288 51.5423336,506.845288 Z M55.8641498,514.500806 L54.2069141,516.116191 L54.5981258,518.397182 C54.7295197,519.162949 54.2920763,519.497807 53.5908058,519.129092 L51.5423584,518.052128 L49.493911,519.129092 C48.8062526,519.490605 48.3525985,519.17812 48.486591,518.397182 L48.8778027,516.116191 L47.220567,514.500806 C46.6642529,513.958549 46.821287,513.430524 47.6053191,513.316628 L49.8955421,512.983824 L50.9197906,510.908474 C51.2636569,510.211807 51.8143281,510.198022 52.164951,510.908474 L53.1891994,512.983824 L55.4794225,513.316628 C56.2482337,513.428321 56.4315268,513.947783 55.8641498,514.500806 Z M59.3995828,502 C59.3830998,502 54.2191402,502 54.2026572,502 C53.9221985,502 53.6973514,502.196336 53.6313946,502.456278 L52.0293497,505.615101 C52.0293497,505.615101 55.4595488,505.821485 57.4857961,507.772668 L59.8785553,502.944209 C59.9494867,502.845633 60,502.731093 60,502.600343 C59.9999505,502.268802 59.7311487,502 59.3995828,502 Z M50.9706008,505.615101 L49.3685559,502.456278 C49.3025991,502.196336 49.077752,502 48.7972933,502 C48.7808103,502 43.6168507,502 43.6003678,502 C43.2688266,502 43,502.268827 43,502.600368 C43,502.731118 43.0504885,502.845658 43.1214447,502.944234 L45.5142039,507.772693 C47.5404017,505.821485 50.9706008,505.615101 50.9706008,505.615101 Z" id="doctor_team_honor"></path>
        </g>
    </g>
</svg>