<?xml version="1.0" encoding="UTF-8"?>
<svg width="23px" height="23px" viewBox="0 0 23 23" version="1.1" xmlns="http://www.w3.org/2000/svg" xmlns:xlink="http://www.w3.org/1999/xlink">
    <!-- Generator: Sketch 50.2 (55047) - http://www.bohemiancoding.com/sketch -->
    <title>homepage_personal_slice</title>
    <desc>Created with Sketch.</desc>
    <defs></defs>
    <g id="Page-1" stroke="none" stroke-width="1" fill="none" fill-rule="evenodd">
        <g id="Artboard" transform="translate(-250.000000, 0.000000)">
            <g id="homepage_personal" transform="translate(250.000000, 0.000000)">
                <rect id="Rectangle-6" x="0" y="0" width="23" height="23"></rect>
                <path d="M20.2555815,16.5628597 L15.616128,15.0140415 C15.616128,15.0140415 14.7314229,14.7203143 14.3875375,14.4306779 C14.1666112,14.2441325 14.1826058,13.805587 14.3775408,13.2459506 C14.5724759,12.6863143 16.9506831,10.4084961 16.9506831,8.34013247 C16.9506831,5.14513248 14.4985005,2.55558703 11.4735088,2.55558703 C8.44851717,2.55558703 5.99633455,5.14513248 5.99633455,8.34013247 C5.99633455,10.3209507 8.11562811,12.6838597 8.37754082,13.112587 C8.63945352,13.5413143 8.57547484,14.1958598 8.36854382,14.3938597 C8.05764746,14.6916779 6.92502498,14.9903143 6.92502498,14.9903143 L2.74241919,16.586587 C1.76474508,16.8868598 1,17.6764052 1,18.566587 L1,18.9887688 C1,19.9607688 1.92169278,20.555587 3.05431523,20.555587 L19.9446851,20.555587 C21.0783072,20.555587 22,19.9607688 22,18.9887688 L22,18.566587 C21.9990003,17.6772234 21.2322559,16.8631325 20.2555815,16.5628597 Z" id="Shape" fill="#0080FF" fill-rule="nonzero"></path>
            </g>
        </g>
    </g>
</svg>