<?xml version="1.0" encoding="UTF-8"?>
<svg width="34px" height="34px" viewBox="0 0 34 34" version="1.1" xmlns="http://www.w3.org/2000/svg" xmlns:xlink="http://www.w3.org/1999/xlink">
    <!-- Generator: Sketch 50.2 (55047) - http://www.bohemiancoding.com/sketch -->
    <title>homepage_activity_slice</title>
    <desc>Created with Sketch.</desc>
    <defs></defs>
    <g id="Page-1" stroke="none" stroke-width="1" fill="none" fill-rule="evenodd">
        <g id="Artboard" transform="translate(-214.000000, -201.000000)">
            <g id="homepage_activity" transform="translate(214.000000, 201.000000)">
                <rect id="Rectangle-4-Copy-3" x="0" y="0" width="34" height="34"></rect>
                <path d="M4.33663636,30.0324465 C4.33663636,30.7917256 4.55677272,31 5.24618182,31 L16.1633636,31 L16.1633636,16.4919703 L4.33663636,16.4919703 L4.33663636,30.0324465 Z M18.8366364,31 L29.7538182,31 C30.4445454,31 30.6633636,30.7930437 30.6633636,30.0324465 L30.6633636,16.4919703 L18.8353182,16.4919703 L18.8353182,31 L18.8366364,31 Z M30.6818182,8.59072283 L24.0909091,8.59072283 C25.6819546,8.22821983 27.3626364,7.05502823 27.5695909,5.6775168 C27.8121364,4.10623101 25.9455909,1.72425668 23.6875455,2.02612281 C20.9865909,2.40048954 19.0066819,4.7837821 17.6094091,6.63188835 C16.2226818,4.81937331 14.4154545,2.7023557 11.8265455,2.08675968 C9.31936364,1.49357294 7.60177272,4.0930491 7.6479091,5.70124427 C7.69272727,7.06821017 9.27322726,8.229538 10.9090909,8.59072283 L4.3181818,8.59072283 C3.50354543,8.59072283 3,9.04945391 3,9.90891561 L3,15.1790503 L16.1818182,15.1816867 L16.1818182,8.59072283 L18.8181818,8.59072283 L18.8181818,15.1816867 L32,15.1790503 L32,9.90891561 C32,9.04945391 31.4951364,8.59072283 30.6818182,8.59072283 Z M9.45645454,6.18633921 C9.00036362,5.67883498 9.30881817,4.98942018 9.59486363,4.46873401 C10.1208182,3.55127184 10.8537273,2.99367629 12.1020455,3.51304426 C13.8420455,4.23936847 15.1233182,5.77506306 16.1673182,7.15257452 C13.9567273,7.39644017 10.6586364,7.49135005 9.45645454,6.18633921 Z M19.0739091,7.12884705 C20.1495455,5.75001742 21.3978636,4.35009669 23.126,3.48931679 C24.9358636,2.59426388 26.6178636,5.01314765 25.7584091,6.17447547 C25.0966818,7.05634644 23.0007727,7.13939258 21.8684545,7.1894839 C20.9391364,7.23693884 19.9992727,7.21452957 19.0739091,7.12884705 Z" id="Shape" fill="#FF7C97" fill-rule="nonzero"></path>
            </g>
        </g>
    </g>
</svg>