<?xml version="1.0" encoding="UTF-8"?>
<svg width="34px" height="34px" viewBox="0 0 34 34" version="1.1" xmlns="http://www.w3.org/2000/svg" xmlns:xlink="http://www.w3.org/1999/xlink">
    <!-- Generator: Sketch 50.2 (55047) - http://www.bohemiancoding.com/sketch -->
    <title>homepage_wifi_slice</title>
    <desc>Created with Sketch.</desc>
    <defs></defs>
    <g id="Page-1" stroke="none" stroke-width="1" fill="none" fill-rule="evenodd">
        <g id="Artboard" transform="translate(-27.000000, -267.000000)">
            <g id="homepage_wifi" transform="translate(27.000000, 267.000000)">
                <rect id="Rectangle-4-Copy-5" x="0" y="0" width="34" height="34"></rect>
                <path d="M17,4 C9.2801473,4 3,10.0558563 3,17.5 C3,24.9441437 9.2801473,31 17,31 C24.7198527,31 31,24.9441437 31,17.5 C31,10.0558563 24.7194539,4 17,4 Z M17.7159505,23.6991455 C17.329008,24.0745209 16.6997884,24.0767731 16.3101115,23.7036499 C15.9208333,23.3305267 15.9184977,22.7237793 16.3054403,22.3480194 C16.6923828,21.9722595 17.3216024,21.9703918 17.7112793,22.343515 C18.1009562,22.7166382 18.1028931,23.3233856 17.7159505,23.6991455 Z M21.0623413,20.3796265 C20.0123413,19.1848633 18.534554,18.4997559 17.0070068,18.4997559 C17.005839,18.4997559 17.00507,18.4997559 17.0039022,18.4997559 C15.4639079,18.500882 14.0172241,19.1833801 12.9310791,20.4227478 L12.0401286,19.6960022 C13.3514608,18.2001312 15.1139079,17.3755249 17.0031331,17.3747559 C17.0043009,17.3747559 17.0058675,17.3747559 17.0070353,17.3747559 C18.8779744,17.3747559 20.6800985,18.2046082 21.9525513,19.6521118 L21.0623983,20.379599 L21.0623413,20.3796265 Z M23.5710734,18.1870026 C21.8055216,16.2745026 19.322054,15.1836426 16.7414022,15.1836426 C16.7036621,15.1836426 16.6667196,15.1840271 16.6286377,15.1844116 C14.1428345,15.2151733 11.8538778,16.2816711 10.1828044,18.1881561 L9.29185384,17.4614105 C11.1845825,15.3025146 13.7850586,14.0942932 16.613855,14.0594116 C19.5659261,14.0260406 22.4257975,15.2545593 24.44257,17.4392731 L23.5710734,18.18703 L23.5710734,18.1870026 Z M26.0708333,15.6628937 C23.3871012,12.9658875 19.8427816,11.4827606 16.3342082,11.5862518 C13.0971069,11.6848541 10.1990967,13.0907745 7.95326335,15.6523743 L7.06231283,14.9256287 C9.52746582,12.1138977 12.7210449,10.5703735 16.2976359,10.4620209 C20.1312866,10.3487518 24.0007406,11.9571503 26.9131348,14.884375 L26.0708049,15.6628937 L26.0708333,15.6628937 Z" id="Shape-Copy-4" fill="#6FCD16" fill-rule="nonzero"></path>
            </g>
        </g>
    </g>
</svg>