<?xml version="1.0" encoding="UTF-8"?>
<svg width="34px" height="34px" viewBox="0 0 34 34" version="1.1" xmlns="http://www.w3.org/2000/svg" xmlns:xlink="http://www.w3.org/1999/xlink">
    <!-- Generator: Sketch 50.2 (55047) - http://www.bohemiancoding.com/sketch -->
    <title>homepage_mall_slice</title>
    <desc>Created with Sketch.</desc>
    <defs></defs>
    <g id="Page-1" stroke="none" stroke-width="1" fill="none" fill-rule="evenodd">
        <g id="Artboard" transform="translate(-214.000000, -267.000000)">
            <g id="homepage_mall" transform="translate(214.000000, 267.000000)">
                <rect id="Rectangle-4-Copy-4" x="0" y="0" width="34" height="34"></rect>
                <path d="M29.6917711,7.29614381 L4.3075178,7.29614381 L2,13.7325106 C2,15.7161287 3.6789305,17.324693 5.75015663,17.324693 C7.82073936,17.324693 9.50031326,15.7173617 9.50031322,13.7325106 C9.50031322,15.7161287 11.1792098,17.324693 13.2498265,17.324693 C15.320443,17.324693 16.9999831,15.7173617 16.9999831,13.7325106 C16.9999831,15.7161287 18.6788797,17.324693 20.7501397,17.324693 C22.8207563,17.324693 24.5002963,15.7173617 24.5002963,13.7325106 C24.5002963,15.7161287 26.1791929,17.324693 28.2498434,17.324693 C30.3211034,17.324693 32,15.7173617 32,13.7325106 L29.6917711,7.29614381 M6.84563834,6.1700741 L27.1543278,6.1700741 C27.9186355,6.1700741 28.5389942,5.68452913 28.5389942,5.08547513 C28.5389942,4.48645357 27.9186693,4 27.1543278,4 L6.84563834,4 C6.0813645,4 5.46100578,4.48551249 5.46100578,5.08547513 C5.46100578,5.68547021 6.08136454,6.1700741 6.84563834,6.1700741 M24.4996529,17.498948 C23.4818515,18.4132509 22.1583405,18.9143393 20.7501058,18.9143392 C19.3418712,18.9143392 18.0171073,18.4132509 16.9999492,17.498948 C15.9815382,18.4132509 14.6579934,18.9143393 13.2497926,18.9143392 C11.8415918,18.9143392 10.5168279,18.4132509 9.49963598,17.498948 C8.481225,18.4132509 7.15768016,18.9143393 5.74947935,18.9143392 C5.65266683,18.9143392 5.55649767,18.9121976 5.46097193,18.9076222 L5.46097193,26.8296014 C5.46097193,28.1497852 6.70358569,29 7.76852358,29 L26.2301558,29 C27.6205111,29 28.538317,28.0148918 28.538317,26.8296014 L28.538317,18.9076222 C28.442114,18.9121976 28.3459448,18.9149558 28.2491323,18.9149558 C26.8422183,18.9149558 25.5174544,18.4132509 24.4996529,17.498948" id="Shape-Copy-3" fill="#BD50FF" fill-rule="nonzero"></path>
            </g>
        </g>
    </g>
</svg>