<?xml version="1.0" encoding="UTF-8"?>
<svg width="23px" height="23px" viewBox="0 0 23 23" version="1.1" xmlns="http://www.w3.org/2000/svg" xmlns:xlink="http://www.w3.org/1999/xlink">
    <!-- Generator: Sketch 50.2 (55047) - http://www.bohemiancoding.com/sketch -->
    <title>homepage_preconditioning_1_slice</title>
    <desc>Created with Sketch.</desc>
    <defs></defs>
    <g id="Page-1" stroke="none" stroke-width="1" fill="none" fill-rule="evenodd">
        <g id="Artboard" transform="translate(-125.000000, 0.000000)">
            <g id="homepage_preconditioning_1" transform="translate(125.000000, 0.000000)">
                <rect id="Rectangle-6" x="0" y="0" width="23" height="23"></rect>
                <g id="Group" transform="translate(1.500000, 1.555587)" stroke="#979797">
                    <path d="M17.7220084,0.5 L2.12667021,0.5 C1.23677408,0.5 0.5,1.26049688 0.5,2.19519258 L0.5,17.9159815 C0.5,18.8506664 1.23676399,19.6111741 2.12667021,19.6111741 L17.7219654,19.6111741 C18.6118237,19.6111741 19.3485927,18.8506718 19.3485927,17.9159815 L19.3485927,2.19519258 C19.3485927,1.26049087 18.6118552,0.5 17.7220084,0.5 Z" id="Shape" fill-rule="nonzero"></path>
                    <g id="Group-2" transform="translate(2.424296, 3.000000)">
                        <path d="M0.701786338,3.23823017 C0.629039942,3.23823017 0.536041291,3.33209131 0.536041291,3.37742725 C0.536041291,3.43154579 0.637256287,3.53823012 0.701786338,3.53823012 L3.05856714,3.53823012 C3.12312409,3.53823012 3.22435555,3.43152972 3.22435555,3.37742725 C3.22435555,3.33212767 3.13131571,3.23823017 3.05856714,3.23823017 L0.701786338,3.23823017 Z" id="Shape" fill-rule="nonzero"></path>
                        <path d="M0.567553043,8.06178592 C0.593415009,8.06178592 0.536041291,8.13432055 0.536041291,8.200983 C0.536041291,8.27489038 0.601855299,8.36178588 0.567553043,8.36178588 L3.93041118,8.36178588 C3.89611808,8.36178588 3.9619663,8.27485215 3.9619663,8.200983 C3.9619663,8.13435884 3.9045578,8.06178592 3.93041118,8.06178592 L0.567553043,8.06178592 Z" id="Path"></path>
                        <path d="M13.9505356,13.1170117 C14.0337897,13.1170117 14.1433285,13.0060542 14.1433216,12.9562088 C14.1433216,12.9153875 14.0419042,12.8170117 13.9505356,12.8170117 L0.692785989,12.8170117 C0.601417364,12.8170117 0.5,12.9153875 0.5,12.9562088 C0.5,13.0060677 0.609524465,13.1170117 0.692785989,13.1170117 L13.9505356,13.1170117 Z" id="Path"></path>
                        <path d="M9.73872727,1.12152766 C7.2914187,1.12152766 5.33413299,3.10202209 5.33413299,5.58427874 C5.33413299,8.0665354 7.2914187,10.0470298 9.73872727,10.0470298 C12.1860358,10.0470298 14.1433216,8.0665354 14.1433216,5.58427874 C14.1433216,3.10202209 12.1860358,1.12152766 9.73872727,1.12152766 Z" id="Path"></path>
                        <path d="M10.000035,5.5 L10.000035,3.64287029 C10.000035,3.59474417 9.8894996,3.5 9.75001748,3.5 C9.61055556,3.5 9.5,3.59475847 9.5,3.64287029 L9.5,5.35716038 C9.5,5.40527259 9.61052301,5.5 9.75001748,5.5 C9.78752709,5.5 9.78752709,5.5 9.82501923,5.5 C9.86251136,5.5 9.86251136,5.5 9.90002097,5.5 C9.93126442,5.5 9.93126442,5.5 9.95001049,5.5 C9.96875655,5.5 9.96875655,5.5 10,5.5 L10.000035,5.5 Z" id="Shape" fill-rule="nonzero"></path>
                    </g>
                </g>
            </g>
        </g>
    </g>
</svg>