<?xml version="1.0" encoding="UTF-8"?>
<svg width="23px" height="23px" viewBox="0 0 23 23" version="1.1" xmlns="http://www.w3.org/2000/svg" xmlns:xlink="http://www.w3.org/1999/xlink">
    <!-- Generator: Sketch 50.2 (55047) - http://www.bohemiancoding.com/sketch -->
    <title>homepage_personal_1_slice</title>
    <desc>Created with Sketch.</desc>
    <defs></defs>
    <g id="Page-1" stroke="none" stroke-width="1" fill="none" fill-rule="evenodd">
        <g id="Artboard" transform="translate(-250.000000, 0.000000)">
            <g id="homepage_personal_1" transform="translate(250.000000, 0.000000)">
                <rect id="Rectangle-6" x="0" y="0" width="23" height="23"></rect>
                <path d="M20.108647,17.0407826 L20.0972529,17.0371298 L15.4585811,15.4885718 C15.2727857,15.4268866 15.0023936,15.3260209 14.7275039,15.2009204 C14.4619364,15.0800624 14.2467803,14.9600276 14.0877402,14.8315029 C14.0765678,14.8224141 14.0765678,14.8224141 14.0649618,14.8127053 C13.6386807,14.4527627 13.6409426,13.8406086 13.9053655,13.0814804 C13.9949106,12.8244066 15.1674221,11.3009348 15.2488104,11.1852252 C15.846081,10.336087 16.2334221,9.59189979 16.3841199,8.91123416 C16.4283154,8.71161404 16.4506831,8.52118095 16.4506831,8.34013247 C16.4506831,5.41544403 14.2161542,3.05558703 11.4735088,3.05558703 C8.7308635,3.05558703 6.49633455,5.41544404 6.49633455,8.34013247 C6.49633455,8.60400218 6.54219468,8.89236084 6.63181546,9.20230413 C6.8100583,9.81873674 7.15026118,10.4908641 7.61884998,11.2087084 C7.95433703,11.7226504 8.78428984,12.8193008 8.80422039,12.8519253 C9.16152448,13.4367996 9.12670563,14.3604357 8.71442133,14.7549259 C8.71184592,14.757387 8.71184592,14.757387 8.70927009,14.7598252 C8.5273287,14.9316409 8.24538546,15.0722105 7.861041,15.2159981 C7.68316102,15.2825451 7.49476819,15.3447023 7.30666687,15.4012234 C7.19381217,15.4351343 7.10523011,15.4598882 7.10330537,15.4574504 L2.88921644,17.0645521 C2.07064193,17.3159606 1.5,17.9463217 1.5,18.566587 L1.5,18.9887688 C1.5,19.6065086 2.11826355,20.055587 3.05431523,20.055587 L19.9446851,20.055587 C20.8816192,20.055587 21.5,19.6065743 21.5,18.9887688 L21.5000003,18.567149 C21.4992964,17.9409338 20.9191809,17.2899764 20.108647,17.0407826 Z" id="Shape" stroke="#979797" fill-rule="nonzero"></path>
            </g>
        </g>
    </g>
</svg>