<?xml version="1.0" encoding="UTF-8"?>
<svg width="23px" height="23px" viewBox="0 0 23 23" version="1.1" xmlns="http://www.w3.org/2000/svg" xmlns:xlink="http://www.w3.org/1999/xlink">
    <!-- Generator: Sketch 50.2 (55047) - http://www.bohemiancoding.com/sketch -->
    <title>homepage_home_1_slice</title>
    <desc>Created with Sketch.</desc>
    <defs></defs>
    <g id="Page-1" stroke="none" stroke-width="1" fill="none" fill-rule="evenodd">
        <g id="Artboard">
            <g id="homepage_home_1">
                <rect id="Rectangle-6" x="0" y="0" width="23" height="23"></rect>
                <path d="M12.7201104,2.65202075 L12.6836707,2.61720651 C12.3474756,2.2619145 11.8545611,2.05558703 11.3296953,2.05558703 C10.8165241,2.05558703 10.3219295,2.25893433 9.97604769,2.61831301 L1.76008705,10.0092367 C1.50150241,10.2548981 1.43144925,10.5911204 1.56953341,10.8959576 C1.71216144,11.210826 2.05515022,11.4182432 2.45552565,11.4182432 L3.69636272,11.4182432 L3.69636272,19.4409093 C3.69636272,20.3261971 4.47637544,21.055587 5.4638533,21.055587 L8.99605856,21.055587 C9.19876523,21.055587 9.36125042,20.9138656 9.36125042,20.7886181 L9.36125039,15.7824922 C9.36125039,15.2935596 9.7331163,14.8806299 10.2422523,14.8806299 L12.7346398,14.8806299 C13.2375231,14.8806299 13.6394544,15.2919613 13.6394544,15.7824922 L13.6394544,20.7861678 C13.6394544,20.9213921 13.7851702,21.0531367 13.9808336,21.0531367 L17.5130389,21.0531367 C18.5075233,21.0531367 19.3043421,20.3192971 19.3043421,19.4384589 L19.3043421,11.4157929 L20.5425333,11.4157929 C20.9402939,11.4157929 21.2837146,11.2082709 21.4284853,10.8902995 C21.5683592,10.5914731 21.5004805,10.2551095 21.2635492,10.027664 L12.7201104,2.65202075 Z" id="Shape" stroke="#979797" fill-rule="nonzero"></path>
            </g>
        </g>
    </g>
</svg>