<?xml version="1.0" encoding="UTF-8"?>
<svg width="23px" height="23px" viewBox="0 0 23 23" version="1.1" xmlns="http://www.w3.org/2000/svg" xmlns:xlink="http://www.w3.org/1999/xlink">
    <!-- Generator: Sketch 50.2 (55047) - http://www.bohemiancoding.com/sketch -->
    <title>homepage_home_slice</title>
    <desc>Created with Sketch.</desc>
    <defs></defs>
    <g id="Page-1" stroke="none" stroke-width="1" fill="none" fill-rule="evenodd">
        <g id="Artboard">
            <g id="homepage_home">
                <rect id="Rectangle-6" x="0" y="0" width="23" height="23"></rect>
                <path d="M13.0468498,2.2735483 C12.6155768,1.81777765 11.9911569,1.55558703 11.3296953,1.55558703 C10.678817,1.55558703 10.0543972,1.81532728 9.64164514,2.24659413 L1.41570791,9.64674115 C1.00560169,10.0363515 0.886538581,10.5999389 1.1140814,11.1022668 C1.34162421,11.6045946 1.86814768,11.9182432 2.45552565,11.9182432 L3.19636272,11.9182432 L3.19636272,19.4409093 C3.19636272,20.60729 4.2044303,21.555587 5.4638533,21.555587 L8.99605856,21.555587 C9.45379003,21.555587 9.86125042,21.2125338 9.86125042,20.7886181 L9.86125039,15.7824922 C9.86125039,15.5693092 10.0120636,15.3806299 10.2422523,15.3806299 L12.7346398,15.3806299 C12.9648285,15.3806299 13.1394544,15.5717595 13.1394544,15.7824922 L13.1394544,20.7861678 C13.1394544,21.2125339 13.5231022,21.5531367 13.9808336,21.5531367 L17.5130389,21.5531367 C18.7724619,21.5531367 19.8043421,20.6072901 19.8043421,19.4384589 L19.8043421,11.9157929 L20.5425333,11.9157929 C21.1272654,11.9157929 21.6537889,11.6021443 21.8813317,11.1022668 C22.1141662,10.6048397 21.997749,10.0388019 21.5902886,9.64919154 L13.0468498,2.2735483 Z" id="Shape" fill="#007EFC" fill-rule="nonzero"></path>
            </g>
        </g>
    </g>
</svg>