<?xml version="1.0" encoding="UTF-8"?>
<svg width="23px" height="23px" viewBox="0 0 23 23" version="1.1" xmlns="http://www.w3.org/2000/svg" xmlns:xlink="http://www.w3.org/1999/xlink">
    <!-- Generator: Sketch 50.2 (55047) - http://www.bohemiancoding.com/sketch -->
    <title>homepage_preconditioning_slice</title>
    <desc>Created with Sketch.</desc>
    <defs></defs>
    <g id="Page-1" stroke="none" stroke-width="1" fill="none" fill-rule="evenodd">
        <g id="Artboard" transform="translate(-125.000000, 0.000000)">
            <g id="homepage_preconditioning" transform="translate(125.000000, 0.000000)">
                <rect id="Rectangle-6" x="0" y="0" width="23" height="23"></rect>
                <path d="M19.2220084,1.5 L3.62667021,1.5 C2.4570467,1.5 1.5,2.48781447 1.5,3.69519258 L1.5,19.4159815 C1.5,20.6233152 2.45700376,21.6111741 3.62667021,21.6111741 L19.2219654,21.6111741 C20.391546,21.6111741 21.3485927,20.6233596 21.3485927,19.4159815 L21.3485927,3.69519258 C21.3485927,2.48781451 20.3915889,1.5 19.2220084,1.5 Z M14.2781477,4.22064659 C17.3499235,4.22064659 19.8073356,6.69858492 19.8073356,9.79601894 C19.8073356,12.893453 17.3499235,15.3713913 14.2781477,15.3713913 C11.2063718,15.3713913 8.74895975,12.893453 8.74895975,9.79601894 C8.74895975,6.69858492 11.2063718,4.22064659 14.2781477,4.22064659 Z M4.65639423,5.77031687 L6.99048686,5.77031687 C7.3531002,5.77031687 7.64986588,6.21392222 7.64986588,6.6163816 C7.64986588,7.01884099 7.35314318,7.49104456 6.99048686,7.49104456 L4.65639423,7.49104456 C4.29378089,7.49104456 3.99705815,7.01888527 3.99705815,6.6163816 C3.99705815,6.21387793 4.29378089,5.77031687 4.65639423,5.77031687 Z M4.52345316,11.4424798 L7.85393786,11.4424798 C8.14348732,11.4424798 8.38037582,11.8860852 8.38037582,12.2885446 C8.38037582,12.691004 8.14348732,13.1632075 7.85393786,13.1632075 L4.52345316,13.1632075 C4.2339037,13.1632075 3.99705815,12.6910482 3.99705815,12.2885446 C3.99705815,11.8860409 4.2339037,11.4424798 4.52345316,11.4424798 Z M18.1811165,18.7058582 L4.66751918,18.7058582 C4.27909079,18.7058582 3.96136382,18.2336989 3.96136382,17.8311953 C3.96136382,17.4287802 4.27909079,16.9851305 4.66751918,16.9851305 L18.1811165,16.9851305 C18.5695448,16.9851305 18.8872718,17.4287802 18.8872718,17.8311953 C18.8873148,18.2336546 18.5695449,18.7058582 18.1811165,18.7058582 Z M13.9709873,11.0349659 C14.0324537,11.0349659 14.0938342,11.0349659 14.1553007,11.0349659 C14.2167242,11.0349659 14.2167242,11.0349659 14.2781477,11.0349659 L17.3499235,11.0349659 C17.7185933,11.0349659 17.9643302,10.7872031 17.9643302,10.4155146 C17.9643302,10.0437817 17.7185933,9.79601894 17.3499235,9.79601894 L14.8925544,9.79601894 L14.8925544,7.62782842 C14.8925544,7.13225847 14.4624611,6.69858492 13.9709873,6.69858492 C13.4795564,6.69858492 13.0494201,7.13225851 13.0494201,7.62782842 L13.0494201,10.1057667 C13.0494201,10.6013367 13.4795134,11.0349659 13.9709873,11.0349659 Z" id="Shape" fill="#0080FF" fill-rule="nonzero"></path>
            </g>
        </g>
    </g>
</svg>