<?xml version="1.0" encoding="UTF-8"?>
<svg width="34px" height="34px" viewBox="0 0 34 34" version="1.1" xmlns="http://www.w3.org/2000/svg" xmlns:xlink="http://www.w3.org/1999/xlink">
    <!-- Generator: Sketch 50.2 (55047) - http://www.bohemiancoding.com/sketch -->
    <title>homepage_clinic_slice</title>
    <desc>Created with Sketch.</desc>
    <defs></defs>
    <g id="Page-1" stroke="none" stroke-width="1" fill="none" fill-rule="evenodd">
        <g id="Artboard" transform="translate(-214.000000, -13.000000)">
            <g id="homepage_clinic" transform="translate(214.000000, 13.000000)">
                <rect id="Rectangle-4" x="0" y="0" width="34" height="34"></rect>
                <path d="M29.6,31 L4.4,31 C3.62680135,31 3,30.3731986 3,29.6 L3,4.4 C3,3.62680135 3.62680135,3 4.4,3 L19.8,3 C20.1713031,3 20.5273986,3.14749958 20.7899495,3.41005051 C21.0525004,3.67260144 21.2,4.02869691 21.2,4.4 L21.2,29.6 L21.9,29.6 L21.9,25.4 L26.1,25.4 C26.4865993,25.4 26.8,25.0865993 26.8,24.7 C26.8,24.3134007 26.4865993,24 26.1,24 L21.9,24 L21.9,20.5 L26.1,20.5 C26.4865993,20.5 26.8,20.1865993 26.8,19.8 C26.8,19.4134007 26.4865993,19.1 26.1,19.1 L21.9,19.1 L21.9,14.2 L29.6,14.2 C30.3731986,14.2 31,14.8268014 31,15.6 L31,29.6 C31,30.3731986 30.3731986,31 29.6,31 Z M15.6,11.4 L12.8,11.4 L12.8,8.6 C12.8,8.21340068 12.4865993,7.9 12.1,7.9 C11.7134007,7.9 11.4,8.21340068 11.4,8.6 L11.4,11.4 L8.6,11.4 C8.21340068,11.4 7.9,11.7134007 7.9,12.1 C7.9,12.4865993 8.21340068,12.8 8.6,12.8 L11.4,12.8 L11.4,15.6 C11.4,15.9865993 11.7134007,16.3 12.1,16.3 C12.4865993,16.3 12.8,15.9865993 12.8,15.6 L12.8,12.8 L15.6,12.8 C15.9865993,12.8 16.3,12.4865993 16.3,12.1 C16.3,11.7134007 15.9865993,11.4 15.6,11.4 Z M17,24 C17,23.2268014 16.3731986,22.6 15.6,22.6 L8.6,22.6 C7.82680135,22.6 7.2,23.2268014 7.2,24 L7.2,29.6 L8.6,29.6 L8.6,24 L15.6,24 L15.6,29.6 L17,29.6 L17,24 Z" id="Shape" fill="#FD8ED0" fill-rule="nonzero"></path>
            </g>
        </g>
    </g>
</svg>