<?xml version="1.0" encoding="UTF-8"?>
<svg width="34px" height="34px" viewBox="0 0 34 34" version="1.1" xmlns="http://www.w3.org/2000/svg" xmlns:xlink="http://www.w3.org/1999/xlink">
    <!-- Generator: Sketch 50.2 (55047) - http://www.bohemiancoding.com/sketch -->
    <title>hompage_doctor_slice</title>
    <desc>Created with Sketch.</desc>
    <defs></defs>
    <g id="Page-1" stroke="none" stroke-width="1" fill="none" fill-rule="evenodd">
        <g id="Artboard" transform="translate(-214.000000, -140.000000)">
            <g id="hompage_doctor" transform="translate(214.000000, 140.000000)">
                <rect id="Rectangle-4-Copy-2" x="0" y="0" width="34" height="34"></rect>
                <path d="M31,28.5759939 C31,24.7548721 28.764113,21.4315957 25.5368893,19.849238 C25.6937681,20.2086652 25.7746689,20.5966648 25.7745109,20.9888682 L25.7745109,21.326109 C27.3300982,21.6531321 28.5074471,23.0410086 28.5074471,24.6909181 L28.5074471,26.5400578 C28.7436016,26.7436054 28.8932802,27.0447245 28.8932802,27.3810155 C28.8932802,27.9939607 28.3966337,28.4908274 27.7840245,28.4908274 C27.1713865,28.4908274 26.6747401,27.9939319 26.6747401,27.3810155 C26.6747401,27.0115387 26.8554016,26.6844868 27.132924,26.4827237 L27.132924,24.5937495 C27.132924,23.4728276 26.2162972,22.5557412 25.095966,22.5557412 L25.0946139,22.5557412 C23.9742539,22.5557412 23.0576271,23.4728276 23.0576271,24.5937495 L23.0576271,26.5196801 C23.3076764,26.72317 23.4675676,27.0333843 23.4675676,27.3810155 C23.4675676,27.9939607 22.9709211,28.4908274 22.3582831,28.4908274 C21.7456739,28.4908274 21.2490275,27.9939319 21.2490275,27.3810155 C21.2490275,27.0447245 21.3987636,26.7436342 21.6348318,26.5400578 L21.6348318,24.6909181 C21.6348318,23.0053763 22.8639339,21.5939559 24.4694907,21.3071416 C24.4066044,20.4788769 24.0707697,19.7241506 23.55249,19.1327345 C23.0228831,19.0052435 22.4834086,18.9229953 21.939885,18.8868771 C21.6734956,25.0043848 19.7924588,29.7454425 17.5113201,29.7454425 C15.22998,29.7454425 13.3488857,25.0036365 13.0826977,18.885438 C13.0708741,18.8861863 13.0591657,18.8873376 13.0473709,18.8881435 C12.4935054,19.5404628 12.1579296,20.3832049 12.1579296,21.3010973 L12.1579296,24.1053448 C12.9460796,24.3952101 13.5083453,25.1529008 13.5083453,26.0420111 C13.5083453,27.1812672 12.5852458,28.1048296 11.4465607,28.1048296 C10.3078757,28.1048296 9.38477611,27.1812672 9.38477611,26.0420111 C9.38477611,25.1053239 10.0090363,24.3149366 10.8638124,24.0633228 L10.8638124,20.6992908 C10.8638124,20.1370597 11.0280763,19.6116123 11.3100865,19.1674746 C7.12066792,20.2420571 4,24.0615671 4,28.5759939 L4,28.876854 L4.02059771,28.876854 C4.01530444,28.9004554 4.01162217,28.9242006 4.01162217,28.9480611 C4.01162217,30.0813017 10.0531372,31 17.5057967,31 C24.9584562,31 31,30.0812729 31,28.9480323 C31,28.9242006 30.9963465,28.9004841 30.9910245,28.876854 L31,28.876854 L31,28.5759939 Z M17.6620919,8.22463496 C14.3159423,8.22463496 11.6033162,9.25754093 11.6033162,10.5317279 C11.6033162,10.5752465 11.6067971,10.6184486 11.6130397,10.6613916 L11.6033162,10.6613916 L12.8832221,16.6818458 C12.902044,16.7876768 12.9243994,16.8928481 12.950251,16.9971833 L12.9537606,17.0137043 L12.954336,17.0137043 C13.4837489,19.123553 15.4007742,20.6979956 17.6677591,20.6979956 L17.668392,20.6979956 C20.0913557,20.6979956 22.1147929,18.8996852 22.4713404,16.5712071 L23.7207813,10.6613628 L23.7110866,10.6613628 C23.7173292,10.6184774 23.7207813,10.5752178 23.7207813,10.5316991 C23.7207813,9.25754093 21.0081839,8.22463496 17.6620919,8.22463496 Z M17.6319145,7.77425146 C20.6067012,7.77425146 23.1320205,8.76412808 24.0319908,10.1386209 L24.271396,10.1386497 L24.271396,4.36436945 L24.2702453,4.36436945 C24.2706481,4.35369126 24.271396,4.34298429 24.271396,4.33221976 C24.271396,3.04418858 21.3127481,2 17.66307,2 C14.0133919,2 11.0547152,3.0441598 11.0547152,4.33221976 C11.0547152,4.34295551 11.0554632,4.35369126 11.0558659,4.36436945 L11.0547152,4.36436945 L11.0547152,10.1386497 L11.2318382,10.1386497 C12.1317797,8.76412808 14.6571278,7.77428025 17.6319145,7.77428025 L17.6319145,7.77425146 Z M15.7992075,4.74435175 C15.7992075,4.49558739 16.0026818,4.29201106 16.251379,4.29201106 L17.2159616,4.29201106 L17.2159616,3.32703103 C17.2159616,3.0782379 17.4194071,2.87463278 17.6680756,2.87463278 C17.916744,2.87463278 18.1202183,3.07820911 18.1202183,3.32700225 L18.1202183,4.29206862 L19.0848009,4.29206862 C19.3334981,4.29206862 19.5369724,4.49564496 19.5369724,4.74443809 C19.5369724,4.99323123 19.3335269,5.19683634 19.0848009,5.19683634 L18.1202183,5.19683634 L18.1202183,6.16190272 C18.1202183,6.41069585 17.9167728,6.61424341 17.6680756,6.61424341 C17.4193784,6.61424341 17.2159616,6.41069585 17.2159616,6.16190272 L17.2159616,5.19680756 L16.251379,5.19680756 C16.0026818,5.19680756 15.7992075,4.99320244 15.7992075,4.74440931 L15.7992075,4.74435175 Z" id="Shape" fill="#4C9BFF" fill-rule="nonzero"></path>
            </g>
        </g>
    </g>
</svg>