<?xml version="1.0" encoding="UTF-8"?>
<svg width="58px" height="58px" viewBox="0 0 58 58" version="1.1" xmlns="http://www.w3.org/2000/svg" xmlns:xlink="http://www.w3.org/1999/xlink">
    <!-- Generator: Sketch 50.2 (55047) - http://www.bohemiancoding.com/sketch -->
    <title>make_an_appointment_hospital_slice</title>
    <desc>Created with Sketch.</desc>
    <defs></defs>
    <g id="Page-1" stroke="none" stroke-width="1" fill="none" fill-rule="evenodd">
        <g id="Artboard" transform="translate(-32.000000, -55.000000)" fill-rule="nonzero">
            <g id="make_an_appointment_hospital" transform="translate(32.000000, 55.000000)">
                <path d="M54.1080962,16 L44.8299776,16 L44.8299776,24.154827 L50.0850112,24.154827 L50.0850112,28.3333333 L44.8299776,28.3333333 L44.8299776,33.2531876 L50.0850112,33.2531876 L50.0850112,37.5664845 L44.8299776,37.5664845 L44.8299776,42.1493625 L50.0850112,42.1493625 L50.0850112,46.3952641 L44.8299776,46.3952641 L44.8299776,53 L58,53 L58,20.2370055 C58,17.8964353 56.2929575,16 54.1080962,16 Z M13.2997763,46.3952641 L7.97986577,46.3952641 L7.97986577,42.1493625 L13.2997763,42.1493625 L13.2997763,37.5664845 L7.97986577,37.5664845 L7.97986577,33.2531876 L13.2997763,33.2531876 L13.2997763,28.3333333 L7.97986577,28.3333333 L7.97986577,24.154827 L13.2997763,24.154827 L13.2997763,16 L3.99849664,16 C1.81363535,16 0,17.8964353 0,20.2370055 L0,53 L13.2997763,53 L13.2997763,46.3952641 Z" id="Shape" fill="#D8D8D8"></path>
                <path d="M44.8299776,47.0899084 L44.8299776,4.07509944 C44.8299776,1.82450503 42.9929217,0 40.7398098,0 L17.3951342,0 C15.1420224,0 13.2997763,1.82450503 13.2997763,4.07509944 L13.2997763,53.4636872 L0,53.4636872 L0,58 L58,58 L58,53.4636872 L44.8299776,53.4636872 L44.8299776,47.0899084 Z M21.7986577,8.35977654 L26.7941834,8.35977654 L26.7941834,3.3698324 L31.3355705,3.3698324 L31.3355705,8.35977654 L36.3310962,8.35977654 L36.3310962,12.8960894 L31.3355705,12.8960894 L31.3355705,17.8212291 L26.7941834,17.8212291 L26.7941834,12.8960894 L21.7986577,12.8960894 L21.7986577,8.35977654 Z M23.4854586,22.5519553 L27.9619687,22.5519553 L27.9619687,27.0882682 L23.4854586,27.0882682 L23.4854586,22.5519553 Z M34.7091723,27.0882682 L30.1677852,27.0882682 L30.1677852,22.5519553 L34.7091723,22.5519553 L34.7091723,27.0882682 Z M41.3914989,27.0882682 L36.8501119,27.0882682 L36.8501119,22.5519553 L41.3914989,22.5519553 L41.3914989,27.0882682 Z M16.803132,22.5519553 L21.2796421,22.5519553 L21.2796421,27.0882682 L16.803132,27.0882682 L16.803132,22.5519553 Z M23.4854586,31.5597765 L27.9619687,31.5597765 L27.9619687,36.0960894 L23.4854586,36.0960894 L23.4854586,31.5597765 Z M34.7091723,36.0960894 L30.1677852,36.0960894 L30.1677852,31.5597765 L34.7091723,31.5597765 L34.7091723,36.0960894 Z M41.3914989,36.0960894 L36.8501119,36.0960894 L36.8501119,31.5597765 L41.3914989,31.5597765 L41.3914989,36.0960894 Z M16.803132,31.5597765 L21.2796421,31.5597765 L21.2796421,36.0960894 L16.803132,36.0960894 L16.803132,31.5597765 Z M23.4854586,40.5027933 L27.9619687,40.5027933 L27.9619687,45.0391061 L23.4854586,45.0391061 L23.4854586,40.5027933 Z M34.7091723,45.0391061 L30.1677852,45.0391061 L30.1677852,40.5027933 L34.7091723,40.5027933 L34.7091723,45.0391061 Z M41.3914989,45.0391061 L36.8501119,45.0391061 L36.8501119,40.5027933 L41.3914989,40.5027933 L41.3914989,45.0391061 Z M16.803132,40.5027933 L21.2796421,40.5027933 L21.2796421,45.0391061 L16.803132,45.0391061 L16.803132,40.5027933 Z M21.2796421,53.3988827 L16.803132,53.3988827 L16.803132,48.9273743 L21.2796421,48.9273743 L21.2796421,53.3988827 Z M27.9619687,53.3988827 L23.4854586,53.3988827 L23.4854586,48.9273743 L27.9619687,48.9273743 L27.9619687,53.3988827 Z M34.7091723,53.3988827 L30.1677852,53.3988827 L30.1677852,48.9273743 L34.7091723,48.9273743 L34.7091723,53.3988827 Z M41.3914989,53.3988827 L36.8501119,53.3988827 L36.8501119,48.9273743 L41.3914989,48.9273743 L41.3914989,53.3988827 Z" id="Shape" fill="#007AFF"></path>
                <path d="M16,21 L20.5514512,21 L20.5514512,25.2647059 L16,25.2647059 L16,21 Z M22.7941953,21 L27.3456464,21 L27.3456464,25.2647059 L22.7941953,25.2647059 L22.7941953,21 Z M29.5883905,21 L34.2058047,21 L34.2058047,25.2647059 L29.5883905,25.2647059 L29.5883905,21 Z M36.3825858,21 L41,21 L41,25.2647059 L36.3825858,25.2647059 L36.3825858,21 Z M16,29.4684874 L20.5514512,29.4684874 L20.5514512,33.7331933 L16,33.7331933 L16,29.4684874 Z M22.7941953,29.4684874 L27.3456464,29.4684874 L27.3456464,33.7331933 L22.7941953,33.7331933 L22.7941953,29.4684874 Z M29.5883905,29.4684874 L34.2058047,29.4684874 L34.2058047,33.7331933 L29.5883905,33.7331933 L29.5883905,29.4684874 Z M36.3825858,29.4684874 L41,29.4684874 L41,33.7331933 L36.3825858,33.7331933 L36.3825858,29.4684874 Z M16,37.8760504 L20.5514512,37.8760504 L20.5514512,42.1407563 L16,42.1407563 L16,37.8760504 Z M22.7941953,37.8760504 L27.3456464,37.8760504 L27.3456464,42.1407563 L22.7941953,42.1407563 L22.7941953,37.8760504 Z M29.5883905,37.8760504 L34.2058047,37.8760504 L34.2058047,42.1407563 L29.5883905,42.1407563 L29.5883905,37.8760504 Z M36.3825858,37.8760504 L41,37.8760504 L41,42.1407563 L36.3825858,42.1407563 L36.3825858,37.8760504 Z M16,45.7962185 L20.5514512,45.7962185 L20.5514512,50 L16,50 L16,45.7962185 Z M22.7941953,45.7962185 L27.3456464,45.7962185 L27.3456464,50 L22.7941953,50 L22.7941953,45.7962185 Z M29.5883905,45.7962185 L34.2058047,45.7962185 L34.2058047,50 L29.5883905,50 L29.5883905,45.7962185 Z M36.3825858,45.7962185 L41,45.7962185 L41,50 L36.3825858,50 L36.3825858,45.7962185 Z" id="Shape" fill="#D8D8D8"></path>
            </g>
        </g>
    </g>
</svg>