<?xml version="1.0" encoding="UTF-8"?>
<svg width="20px" height="31px" viewBox="0 0 20 31" version="1.1" xmlns="http://www.w3.org/2000/svg" xmlns:xlink="http://www.w3.org/1999/xlink">
    <!-- Generator: Sketch 50.2 (55047) - http://www.bohemiancoding.com/sketch -->
    <title>phone_phone_slice</title>
    <desc>Created with Sketch.</desc>
    <defs></defs>
    <g id="Page-1" stroke="none" stroke-width="1" fill="none" fill-rule="evenodd">
        <g id="Artboard" transform="translate(-28.000000, -72.000000)" fill="#0080FF" fill-rule="nonzero">
            <path d="M44.4705596,72 L31.5294056,72 C29.579724,72 28,73.6021499 28,75.576915 L28,99.4230499 C28,101.397815 29.5797588,103 31.5294056,103 L44.4705944,103 C46.420276,103 48,101.397815 48,99.4230499 L48,75.576915 C48,73.6021851 46.420276,72 44.4705596,72 Z M36.8234967,73.192305 L39.1764686,73.192305 C39.5016007,73.192305 39.7646855,73.4589663 39.7646855,73.7884399 C39.7646855,74.1179486 39.5016007,74.38461 39.1764686,74.38461 L36.8234967,74.38461 C36.4983993,74.38461 36.2352798,74.1179486 36.2352798,73.7884399 C36.2352798,73.4589664 36.4983993,73.192305 36.8234967,73.192305 Z M38,101.543356 C37.1693228,101.543356 36.4961077,100.861079 36.4961077,100.01922 C36.4961077,99.1773963 37.1693576,98.4950838 38,98.4950838 C38.8306424,98.4950838 39.5038923,99.1774315 39.5038923,100.01922 C39.503927,100.861114 38.8306424,101.543356 38,101.543356 Z M45.6470282,96.442305 C45.6470282,96.7718137 45.3839434,97.0384399 45.0588112,97.0384399 L30.941154,97.0384399 C30.6160219,97.0384399 30.3529024,96.7718137 30.3529024,96.442305 L30.3529024,76.1730851 C30.3529024,75.8435764 30.6160219,75.5769502 30.941154,75.5769502 L45.0588112,75.5769502 C45.3839434,75.5769502 45.6470282,75.8436115 45.6470282,76.1730851 L45.6470282,96.442305 Z" id="phone_phone"></path>
        </g>
    </g>
</svg>