<?xml version="1.0" encoding="UTF-8"?>
<svg width="23px" height="29px" viewBox="0 0 23 29" version="1.1" xmlns="http://www.w3.org/2000/svg" xmlns:xlink="http://www.w3.org/1999/xlink">
    <!-- Generator: Sketch 50.2 (55047) - http://www.bohemiancoding.com/sketch -->
    <title>phone_verification_slice</title>
    <desc>Created with Sketch.</desc>
    <defs></defs>
    <g id="Page-1" stroke="none" stroke-width="1" fill="none" fill-rule="evenodd">
        <g id="Artboard" transform="translate(-27.000000, -136.000000)" fill="#0080FF" fill-rule="nonzero">
            <path d="M47.8834951,145.906149 L45.3009709,145.906149 C45.3009709,141.754045 42.1326861,138.585761 38.0873786,138.585761 C34.0420712,138.585761 30.8737864,141.757282 30.8737864,145.906149 L28.2912621,145.906149 C28.2912621,140.925566 32.6860841,136 38.0873786,136 C43.4886731,136.003236 47.8834951,140.925566 47.8834951,145.906149 Z M49.4110032,150.152104 C49.4110032,148.724919 48.2524272,147.569579 46.828479,147.569579 L29.5825243,147.569579 C28.1553398,147.569579 27,148.728155 27,150.152104 L27,162.417476 C27,163.84466 28.1585761,165 29.5825243,165 L46.828479,165 C48.2556634,165 49.4110032,163.841424 49.4110032,162.417476 L49.4110032,150.152104 Z M40.2783172,159.7411 C40.2783172,160.812298 39.4110032,161.679612 38.3398058,161.679612 L38.0647249,161.679612 C36.9935275,161.679612 36.1262136,160.812298 36.1262136,159.7411 L36.1262136,154.485437 C36.1262136,153.414239 36.9935275,152.546926 38.0647249,152.546926 L38.3398058,152.546926 C39.4110032,152.546926 40.2783172,153.414239 40.2783172,154.485437 L40.2783172,159.7411 Z" id="phone_verification"></path>
        </g>
    </g>
</svg>